# xmcd CD database file
#
# Track frame offsets:
#	150
#	21381
#	39986
#	59347
#	74729
#	98966
#	118170
#	140003
#	156001
#	173783
#	196924
#	207475
#	227215
#	249345
#
# Disc length: 3628 seconds
#
# Revision: 0
# Processed by: cddbd v1.4PL0 Copyright (c) Steve Scherf et al.
# Submitted via: CDex 1.50
#
DISCID=cf0e2a0e
DTITLE=Sternhagel - Smakelig
DYEAR=2000
DGENRE=Deutsch-Rock
TTITLE0=wer weiß
TTITLE1=streichholz
TTITLE2=keinen auf sie
TTITLE3=tränenclown
TTITLE4=ausgeträumt
TTITLE5=steig ein
TTITLE6=ich friere
TTITLE7=bunte schatten
TTITLE8=phantasievampir
TTITLE9=flöhe
TTITLE10=julia
TTITLE11=kurz davor
TTITLE12=mit der zeit
TTITLE13=leerer Kopf
EXTD=YEAR: 2000
EXTT0=
EXTT1=
EXTT2=
EXTT3=
EXTT4=
EXTT5=
EXTT6=
EXTT7=
EXTT8=
EXTT9=
EXTT10=
EXTT11=
EXTT12=
EXTT13=
PLAYORDER=
